<?xml version="1.0" encoding="utf-8"?>
<svg viewBox="42.367 162.941 99.332 120.865" xmlns="http://www.w3.org/2000/svg">
  <g transform="matrix(0.191033, 0, 0, 0.191033, 11.680763, 194.548021)">
    <g>
      <path style="stroke: rgb(0, 0, 0); stroke-width: 0px; fill: rgb(2, 44, 34);" d="M 210.766 89.416 H 631.386 V 437.153 A 30 30 0 0 1 601.386 467.153 H 240.766 A 30 30 0 0 1 210.766 437.153 V 89.416 Z"/>
      <path d="M 416.314 -61.727 C 430.961 -74.184 421.319 -176.862 435.966 -164.405 L 673.284 112.397 C 687.931 124.854 680.608 131.083 651.313 131.083 L 189.927 131.083 C 160.632 131.083 153.309 124.854 167.956 112.397 L 416.314 -61.727 Z" style="stroke: rgb(0, 0, 0); stroke-width: 0px; fill: rgb(2, 44, 34);"/>
    </g>
    <path style="stroke: rgb(0, 0, 0); stroke-width: 0px; fill: rgb(5, 150, 105);" d="M 423.328 206.292 H 424.824 A 80 80 0 0 1 504.824 286.292 V 467.241 H 343.328 V 286.292 A 80 80 0 0 1 423.328 206.292 Z"/>
  </g>
</svg>