<?xml version="1.0" encoding="utf-8"?>
<svg viewBox="113.759 230.879 496.934 120.942" xmlns="http://www.w3.org/2000/svg">
  <g transform="matrix(0.534046, 0, 0, 0.534046, 68.70826, 182.154251)">
    <path d="M 339.909 191.017 L 333.665 191.082 L 335.43 315.389 L 300.375 315.389 L 300.375 256.144 L 245.845 256.144 L 245.845 315.389 L 210.79 315.389 L 210.79 171.479 L 245.845 171.479 L 245.845 227.854 L 300.375 227.854 L 300.042 190.467 L 294.056 190.436 C 294.071 190.398 315.192 175.207 317.465 175.181 C 317.465 175.179 335.721 187.843 339.909 191.017 Z M 468.459 256.349 C 468.459 259.629 468.254 263.046 467.844 266.599 L 388.509 266.599 C 389.056 273.706 391.345 279.138 395.377 282.896 C 399.408 286.655 404.362 288.534 410.239 288.534 C 418.986 288.534 425.067 284.844 428.484 277.464 L 465.794 277.464 C 463.881 284.981 460.43 291.746 455.442 297.759 C 450.453 303.772 444.201 308.487 436.684 311.904 C 429.167 315.321 420.762 317.029 411.469 317.029 C 400.262 317.029 390.286 314.637 381.539 309.854 C 372.792 305.071 365.959 298.237 361.039 289.354 C 356.119 280.471 353.659 270.084 353.659 258.194 C 353.659 246.304 356.085 235.917 360.937 227.034 C 365.788 218.151 372.587 211.317 381.334 206.534 C 390.081 201.751 400.126 199.359 411.469 199.359 C 422.539 199.359 432.379 201.682 440.989 206.329 C 449.599 210.976 456.33 217.604 461.182 226.214 C 466.033 234.824 468.459 244.869 468.459 256.349 Z M 432.584 247.124 C 432.584 241.111 430.534 236.327 426.434 232.774 C 422.334 229.221 417.209 227.444 411.059 227.444 C 405.182 227.444 400.228 229.152 396.197 232.569 C 392.165 235.986 389.671 240.837 388.714 247.124 L 432.584 247.124 Z M 533.45 317.029 C 523.473 317.029 514.59 315.321 506.8 311.904 C 499.01 308.487 492.86 303.806 488.35 297.861 C 483.84 291.916 481.312 285.254 480.765 277.874 L 515.41 277.874 C 515.82 281.837 517.665 285.049 520.945 287.509 C 524.225 289.969 528.257 291.199 533.04 291.199 C 537.413 291.199 540.796 290.345 543.187 288.636 C 545.579 286.928 546.775 284.707 546.775 281.974 C 546.775 278.694 545.067 276.268 541.65 274.696 C 538.233 273.125 532.698 271.382 525.045 269.469 C 516.845 267.556 510.012 265.54 504.545 263.421 C 499.078 261.303 494.363 257.955 490.4 253.376 C 486.437 248.798 484.455 242.614 484.455 234.824 C 484.455 228.264 486.266 222.285 489.887 216.886 C 493.509 211.488 498.839 207.217 505.877 204.074 C 512.916 200.931 521.287 199.359 530.99 199.359 C 545.34 199.359 556.649 202.912 564.917 210.019 C 573.186 217.126 577.935 226.556 579.165 238.309 L 546.775 238.309 C 546.228 234.346 544.486 231.202 541.547 228.879 C 538.609 226.556 534.748 225.394 529.965 225.394 C 525.865 225.394 522.722 226.18 520.535 227.751 C 518.348 229.323 517.255 231.476 517.255 234.209 C 517.255 237.489 518.997 239.949 522.482 241.589 C 525.967 243.229 531.4 244.869 538.78 246.509 C 547.253 248.696 554.155 250.848 559.485 252.966 C 564.815 255.085 569.496 258.501 573.527 263.216 C 577.559 267.931 579.643 274.252 579.78 282.179 C 579.78 288.876 577.901 294.855 574.142 300.116 C 570.384 305.378 564.986 309.512 557.947 312.519 C 550.909 315.526 542.743 317.029 533.45 317.029 Z M 665.046 285.664 L 665.046 315.389 L 647.211 315.389 C 634.501 315.389 624.593 312.28 617.486 306.061 C 610.379 299.843 606.826 289.696 606.826 275.619 L 606.826 230.109 L 592.886 230.109 L 592.886 200.999 L 606.826 200.999 L 607.125 173.237 L 601.494 172.941 L 625.05 156.235 L 647.213 172.764 L 641.759 173.266 L 641.881 200.999 L 664.841 200.999 L 664.841 230.109 L 641.881 230.109 L 641.881 276.029 C 641.881 279.446 642.701 281.906 644.341 283.409 C 645.981 284.912 648.714 285.664 652.541 285.664 L 665.046 285.664 Z M 677.565 257.989 C 677.565 246.236 679.786 235.917 684.228 227.034 C 688.669 218.151 694.717 211.317 702.37 206.534 C 710.023 201.751 718.565 199.359 727.995 199.359 C 736.058 199.359 743.131 200.999 749.213 204.279 C 755.294 207.559 759.975 211.864 763.255 217.194 L 763.255 200.999 L 798.31 200.999 L 798.31 315.389 L 763.255 315.389 L 763.255 299.194 C 759.838 304.524 755.089 308.829 749.008 312.109 C 742.926 315.389 735.853 317.029 727.79 317.029 C 718.497 317.029 710.023 314.603 702.37 309.751 C 694.717 304.9 688.669 297.998 684.228 289.046 C 679.786 280.095 677.565 269.742 677.565 257.989 Z M 763.255 258.194 C 763.255 249.447 760.829 242.546 755.978 237.489 C 751.126 232.432 745.215 229.904 738.245 229.904 C 731.275 229.904 725.364 232.398 720.513 237.386 C 715.661 242.375 713.235 249.242 713.235 257.989 C 713.235 266.736 715.661 273.671 720.513 278.796 C 725.364 283.921 731.275 286.484 738.245 286.484 C 745.215 286.484 751.126 283.956 755.978 278.899 C 760.829 273.842 763.255 266.941 763.255 258.194 Z M 887.479 285.664 L 887.479 315.389 L 869.644 315.389 C 856.934 315.389 847.026 312.28 839.919 306.061 C 832.812 299.843 829.259 289.696 829.259 275.619 L 829.259 230.109 L 815.319 230.109 L 815.319 200.999 L 829.259 200.999 L 829.483 173.744 L 824.723 173.437 L 846.157 159.903 L 867.815 173.119 L 862.829 173.186 L 864.314 200.999 L 887.274 200.999 L 887.274 230.109 L 864.314 230.109 L 864.314 276.029 C 864.314 279.446 865.134 281.906 866.774 283.409 C 868.414 284.912 871.147 285.664 874.974 285.664 L 887.479 285.664 Z M 1014.769 256.349 C 1014.769 259.629 1014.564 263.046 1014.154 266.599 L 934.819 266.599 C 935.366 273.706 937.655 279.138 941.686 282.896 C 945.718 286.655 950.672 288.534 956.549 288.534 C 965.296 288.534 971.377 284.844 974.794 277.464 L 1012.104 277.464 C 1010.191 284.981 1006.74 291.746 1001.751 297.759 C 996.763 303.772 990.511 308.487 982.994 311.904 C 975.477 315.321 967.072 317.029 957.779 317.029 C 946.572 317.029 936.596 314.637 927.849 309.854 C 919.102 305.071 912.269 298.237 907.349 289.354 C 902.429 280.471 899.969 270.084 899.969 258.194 C 899.969 246.304 902.395 235.917 907.246 227.034 C 912.098 218.151 918.897 211.317 927.644 206.534 C 936.391 201.751 946.436 199.359 957.779 199.359 C 968.849 199.359 978.689 201.682 987.299 206.329 C 995.909 210.976 1002.64 217.604 1007.491 226.214 C 1012.343 234.824 1014.769 244.869 1014.769 256.349 Z M 978.894 247.124 C 978.894 241.111 976.844 236.327 972.744 232.774 C 968.644 229.221 963.519 227.444 957.369 227.444 C 951.492 227.444 946.538 229.152 942.506 232.569 C 938.475 235.986 935.981 240.837 935.024 247.124 L 978.894 247.124 Z" style="fill: rgb(2, 44, 34); white-space: pre;"/>
    <g transform="matrix(0.357709, 0, 0, 0.357709, 26.898104, 150.420792)">
      <g>
        <path style="stroke: rgb(0, 0, 0); stroke-width: 0px; fill: rgb(2, 44, 34);" d="M 210.766 89.416 H 631.386 V 437.153 A 30 30 0 0 1 601.386 467.153 H 240.766 A 30 30 0 0 1 210.766 437.153 V 89.416 Z"/>
        <path d="M 416.314 -61.727 C 430.961 -74.184 421.319 -176.862 435.966 -164.405 L 673.284 112.397 C 687.931 124.854 680.608 131.083 651.313 131.083 L 189.927 131.083 C 160.632 131.083 153.309 124.854 167.956 112.397 L 416.314 -61.727 Z" style="stroke: rgb(0, 0, 0); stroke-width: 0px; fill: rgb(2, 44, 34);"/>
      </g>
      <path style="stroke: rgb(0, 0, 0); stroke-width: 0px; fill: rgb(5, 150, 105);" d="M 423.328 206.292 H 424.824 A 80 80 0 0 1 504.824 286.292 V 467.241 H 343.328 V 286.292 A 80 80 0 0 1 423.328 206.292 Z"/>
    </g>
    <path d="M 468.344 256.847 Q 468.344 261.767 467.729 267.097 L 388.394 267.097 Q 389.214 277.757 395.262 283.394 Q 401.309 289.032 410.124 289.032 Q 423.244 289.032 428.369 277.962 L 465.679 277.962 Q 462.809 289.237 455.327 298.257 Q 447.844 307.277 436.569 312.402 Q 425.294 317.527 411.354 317.527 Q 394.544 317.527 381.424 310.352 Q 368.304 303.177 360.924 289.852 Q 353.544 276.527 353.544 258.692 Q 353.544 240.857 360.822 227.532 Q 368.099 214.207 381.219 207.032 Q 394.339 199.857 411.354 199.857 Q 427.959 199.857 440.874 206.827 Q 453.789 213.797 461.067 226.712 Q 468.344 239.627 468.344 256.847 Z M 432.469 247.622 Q 432.469 238.602 426.319 233.272 Q 420.169 227.942 410.944 227.942 Q 402.129 227.942 396.082 233.067 Q 390.034 238.192 388.599 247.622 Z" style="fill: rgb(5, 150, 105); white-space: pre;"/>
    <path d="M 1014.866 256.248 Q 1014.866 261.168 1014.251 266.498 L 934.916 266.498 Q 935.736 277.158 941.783 282.795 Q 947.831 288.433 956.646 288.433 Q 969.766 288.433 974.891 277.363 L 1012.201 277.363 Q 1009.331 288.638 1001.848 297.658 Q 994.366 306.678 983.091 311.803 Q 971.816 316.928 957.876 316.928 Q 941.066 316.928 927.946 309.753 Q 914.826 302.578 907.446 289.253 Q 900.066 275.928 900.066 258.093 Q 900.066 240.258 907.343 226.933 Q 914.621 213.608 927.741 206.433 Q 940.861 199.258 957.876 199.258 Q 974.481 199.258 987.396 206.228 Q 1000.311 213.198 1007.588 226.113 Q 1014.866 239.028 1014.866 256.248 Z M 978.991 247.023 Q 978.991 238.003 972.841 232.673 Q 966.691 227.343 957.466 227.343 Q 948.651 227.343 942.603 232.468 Q 936.556 237.593 935.121 247.023 Z" style="fill: rgb(5, 150, 105); white-space: pre;"/>
    <path d="M 677 258.662 Q 677 241.032 683.662 227.707 Q 690.325 214.382 701.805 207.207 Q 713.285 200.032 727.43 200.032 Q 739.525 200.032 748.647 204.952 Q 757.77 209.872 762.69 217.867 L 762.69 201.672 L 797.745 201.672 L 797.745 316.062 L 762.69 316.062 L 762.69 299.867 Q 757.565 307.862 748.442 312.782 Q 739.32 317.702 727.225 317.702 Q 713.285 317.702 701.805 310.424 Q 690.325 303.147 683.662 289.719 Q 677 276.292 677 258.662 Z M 762.69 258.867 Q 762.69 245.747 755.412 238.162 Q 748.135 230.577 737.68 230.577 Q 727.225 230.577 719.947 238.059 Q 712.67 245.542 712.67 258.662 Q 712.67 271.782 719.947 279.469 Q 727.225 287.157 737.68 287.157 Q 748.135 287.157 755.412 279.572 Q 762.69 271.987 762.69 258.867 Z" style="fill: rgb(232, 187, 2); white-space: pre;"/>
  </g>
</svg>