<?xml version="1.0" encoding="utf-8"?>
<svg viewBox="0 0 500 500" xmlns="http://www.w3.org/2000/svg" xmlns:bx="https://boxy-svg.com">
  <g transform="matrix(1, 0, 0, 1, -35.583946, 22.810221)">
    <g transform="matrix(0.357709, 0, 0, 0.357709, 48.428043, 124.476601)">
      <g>
        <path style="stroke: rgb(0, 0, 0); fill: rgb(110, 231, 183); stroke-width: 0px;" d="M 210.766 89.416 H 631.386 V 437.153 A 30 30 0 0 1 601.386 467.153 H 240.766 A 30 30 0 0 1 210.766 437.153 V 89.416 Z" bx:shape="rect 210.766 89.416 420.62 377.737 0 0 30 30 1@4d1055ae"/>
        <path d="M 398.649 -83.808 Q 420.62 -102.494 442.591 -83.808 L 673.284 112.397 Q 695.255 131.083 651.313 131.083 L 189.927 131.083 Q 145.985 131.083 167.956 112.397 Z" style="stroke: rgb(0, 0, 0); fill: rgb(5, 150, 105); stroke-width: 0px;" bx:shape="triangle 145.985 -102.494 549.27 233.577 0.5 0.08 1@87d7ceab"/>
      </g>
      <path style="stroke: rgb(0, 0, 0); fill: rgb(220, 252, 231); stroke-width: 0px;" d="M 423.328 206.292 H 424.824 A 80 80 0 0 1 504.824 286.292 V 467.241 H 343.328 V 286.292 A 80 80 0 0 1 423.328 206.292 Z" bx:shape="rect 343.328 206.292 161.496 260.949 80 80 0 0 1@051d71fb"/>
    </g>
    <text style="fill: rgb(2, 44, 34); font-family: Poppins; font-size: 205px; font-weight: 700; white-space: pre;" x="296.533" y="288.017" dx="-0.912" dy="0.912">Ejenti</text>
    <ellipse style="stroke-width: 0px; stroke: rgb(0, 0, 0); fill: rgb(232, 187, 2);" cx="438.472" cy="142.396" rx="26.063" ry="25"/>
    <ellipse style="stroke: rgb(0, 0, 0); stroke-width: 0px; fill: rgb(232, 187, 2);" cx="844.891" cy="137.47" rx="26.063" ry="25"/>
  </g>
</svg>